<svg xmlns="http://www.w3.org/2000/svg" version="1.0" width="286.000000pt" height="306.000000pt" viewBox="0 0 286.000000 306.000000" preserveAspectRatio="xMidYMid meet">

<g transform="translate(0.000000,306.000000) scale(0.100000,-0.100000)" fill="#00a5f4" stroke="none">
<path d="M1119 3000 c-143 -17 -337 -90 -456 -171 -199 -135 -348 -348 -409 -584 -22 -85 -26 -130 -31 -297 -7 -227 -14 -202 101 -334 39 -44 113 -128 165 -187 51 -59 97 -107 101 -107 5 0 114 141 244 313 197 260 549 723 876 1152 l69 90 -37 19 c-65 33 -184 73 -267 89 -100 19 -269 27 -356 17z" fill="#00a5f4"/>
<path d="M1845 2697 c-33 -45 -112 -149 -175 -232 -64 -82 -239 -312 -390 -510 -250 -328 -344 -449 -520 -677 -33 -42 -60 -80 -60 -86 0 -5 46 -60 101 -123 56 -63 188 -213 293 -334 105 -121 220 -254 257 -295 37 -41 123 -138 191 -216 l125 -141 36 14 c20 9 37 19 37 23 0 7 -431 504 -771 889 -66 74 -119 137 -119 140 0 6 184 248 464 611 200 258 440 571 599 778 l110 144 -49 49 c-26 27 -53 49 -59 49 -5 -1 -37 -38 -70 -83z" fill="#00a5f4"/>
<path d="M2075 2498 c-49 -67 -218 -286 -603 -782 l-303 -391 133 -8 c73 -4 158 -14 188 -23 118 -33 211 -128 246 -248 25 -88 16 -213 -21 -290 -29 -62 -93 -131 -149 -161 l-34 -18 161 -185 c89 -101 167 -186 174 -189 20 -8 141 101 206 185 148 193 215 443 176 658 -11 63 -48 174 -75 226 -29 56 -112 162 -154 196 -22 18 -40 37 -40 41 0 5 16 19 35 32 20 13 52 49 72 79 20 30 49 71 64 90 57 72 109 253 109 375 0 86 -20 203 -47 279 -27 76 -82 186 -92 186 -4 0 -24 -24 -46 -52z" fill="#00a5f4"/>
<path d="M220 1305 c0 -132 3 -290 7 -351 l6 -112 116 152 c64 83 127 165 139 183 l22 31 -136 159 c-75 87 -140 162 -145 168 -5 5 -9 -92 -9 -230z" fill="#00a5f4"/>
<path d="M448 876 l-166 -218 29 -66 c17 -37 33 -70 37 -74 4 -3 65 71 137 165 72 94 151 198 177 230 53 66 53 65 -9 136 l-39 44 -166 -217z" fill="#00a5f4"/>
<path d="M753 793 c-28 -38 -109 -144 -181 -237 -103 -133 -129 -173 -122 -186 20 -37 172 -168 249 -214 96 -58 225 -108 335 -130 136 -28 471 -18 491 15 3 4 -68 90 -157 191 -90 101 -192 217 -227 258 -122 143 -325 370 -332 370 -3 0 -29 -30 -56 -67z" fill="#00a5f4"/>
</g>
</svg>